<mxfile host="app.diagrams.net" modified="2023-12-06T05:21:13.265Z" agent="Mozilla/5.0 (Windows NT 10.0; Win64; x64) AppleWebKit/537.36 (KHTML, like Gecko) Chrome/119.0.0.0 Safari/537.36 Edg/119.0.0.0" etag="Dk9f0-kzXT4bk2lJ2RFg" version="22.1.5" type="device" pages="4">
  <diagram name="Page-1" id="0UfS1w2Lqfvua7gWVqje">
    <mxGraphModel dx="2158" dy="1656" grid="1" gridSize="10" guides="1" tooltips="1" connect="1" arrows="1" fold="1" page="1" pageScale="1" pageWidth="850" pageHeight="1100" math="0" shadow="0">
      <root>
        <mxCell id="0" />
        <mxCell id="1" parent="0" />
        <mxCell id="qsiwKjfx9001ZlMrMq_o-1" value="" style="line;strokeWidth=2;direction=south;html=1;fillColor=#f5f5f5;fontColor=#333333;strokeColor=#666666;" vertex="1" parent="1">
          <mxGeometry x="390" y="-60" width="10" height="550" as="geometry" />
        </mxCell>
        <mxCell id="qsiwKjfx9001ZlMrMq_o-2" value="Quản trị viên/ Nhân viên" style="shape=umlLifeline;perimeter=lifelinePerimeter;whiteSpace=wrap;html=1;container=1;dropTarget=0;collapsible=0;recursiveResize=0;outlineConnect=0;portConstraint=eastwest;newEdgeStyle={&quot;curved&quot;:0,&quot;rounded&quot;:0};" vertex="1" parent="1">
          <mxGeometry x="-140" y="40" width="100" height="640" as="geometry" />
        </mxCell>
        <mxCell id="qsiwKjfx9001ZlMrMq_o-3" value="" style="html=1;points=[[0,0,0,0,5],[0,1,0,0,-5],[1,0,0,0,5],[1,1,0,0,-5]];perimeter=orthogonalPerimeter;outlineConnect=0;targetShapes=umlLifeline;portConstraint=eastwest;newEdgeStyle={&quot;curved&quot;:0,&quot;rounded&quot;:0};" vertex="1" parent="qsiwKjfx9001ZlMrMq_o-2">
          <mxGeometry x="45" y="80" width="10" height="230" as="geometry" />
        </mxCell>
        <mxCell id="qsiwKjfx9001ZlMrMq_o-4" value="Form" style="shape=umlLifeline;perimeter=lifelinePerimeter;whiteSpace=wrap;html=1;container=1;dropTarget=0;collapsible=0;recursiveResize=0;outlineConnect=0;portConstraint=eastwest;newEdgeStyle={&quot;curved&quot;:0,&quot;rounded&quot;:0};" vertex="1" parent="1">
          <mxGeometry x="60" y="40" width="100" height="640" as="geometry" />
        </mxCell>
        <mxCell id="qsiwKjfx9001ZlMrMq_o-5" value="" style="html=1;points=[[0,0,0,0,5],[0,1,0,0,-5],[1,0,0,0,5],[1,1,0,0,-5]];perimeter=orthogonalPerimeter;outlineConnect=0;targetShapes=umlLifeline;portConstraint=eastwest;newEdgeStyle={&quot;curved&quot;:0,&quot;rounded&quot;:0};" vertex="1" parent="qsiwKjfx9001ZlMrMq_o-4">
          <mxGeometry x="45" y="80" width="10" height="40" as="geometry" />
        </mxCell>
        <mxCell id="qsiwKjfx9001ZlMrMq_o-6" value="" style="html=1;points=[[0,0,0,0,5],[0,1,0,0,-5],[1,0,0,0,5],[1,1,0,0,-5]];perimeter=orthogonalPerimeter;outlineConnect=0;targetShapes=umlLifeline;portConstraint=eastwest;newEdgeStyle={&quot;curved&quot;:0,&quot;rounded&quot;:0};" vertex="1" parent="qsiwKjfx9001ZlMrMq_o-4">
          <mxGeometry x="45" y="160" width="10" height="120" as="geometry" />
        </mxCell>
        <mxCell id="qsiwKjfx9001ZlMrMq_o-7" value="" style="html=1;points=[[0,0,0,0,5],[0,1,0,0,-5],[1,0,0,0,5],[1,1,0,0,-5]];perimeter=orthogonalPerimeter;outlineConnect=0;targetShapes=umlLifeline;portConstraint=eastwest;newEdgeStyle={&quot;curved&quot;:0,&quot;rounded&quot;:0};" vertex="1" parent="qsiwKjfx9001ZlMrMq_o-4">
          <mxGeometry x="45" y="310" width="10" height="20" as="geometry" />
        </mxCell>
        <mxCell id="qsiwKjfx9001ZlMrMq_o-8" value="" style="html=1;points=[[0,0,0,0,5],[0,1,0,0,-5],[1,0,0,0,5],[1,1,0,0,-5]];perimeter=orthogonalPerimeter;outlineConnect=0;targetShapes=umlLifeline;portConstraint=eastwest;newEdgeStyle={&quot;curved&quot;:0,&quot;rounded&quot;:0};" vertex="1" parent="qsiwKjfx9001ZlMrMq_o-4">
          <mxGeometry x="45" y="400" width="10" height="20" as="geometry" />
        </mxCell>
        <mxCell id="qsiwKjfx9001ZlMrMq_o-9" value="" style="html=1;points=[[0,0,0,0,5],[0,1,0,0,-5],[1,0,0,0,5],[1,1,0,0,-5]];perimeter=orthogonalPerimeter;outlineConnect=0;targetShapes=umlLifeline;portConstraint=eastwest;newEdgeStyle={&quot;curved&quot;:0,&quot;rounded&quot;:0};" vertex="1" parent="qsiwKjfx9001ZlMrMq_o-4">
          <mxGeometry x="45" y="510" width="10" height="20" as="geometry" />
        </mxCell>
        <mxCell id="qsiwKjfx9001ZlMrMq_o-10" value="Controller" style="shape=umlLifeline;perimeter=lifelinePerimeter;whiteSpace=wrap;html=1;container=1;dropTarget=0;collapsible=0;recursiveResize=0;outlineConnect=0;portConstraint=eastwest;newEdgeStyle={&quot;curved&quot;:0,&quot;rounded&quot;:0};" vertex="1" parent="1">
          <mxGeometry x="440" y="40" width="100" height="640" as="geometry" />
        </mxCell>
        <mxCell id="qsiwKjfx9001ZlMrMq_o-11" value="" style="html=1;points=[[0,0,0,0,5],[0,1,0,0,-5],[1,0,0,0,5],[1,1,0,0,-5]];perimeter=orthogonalPerimeter;outlineConnect=0;targetShapes=umlLifeline;portConstraint=eastwest;newEdgeStyle={&quot;curved&quot;:0,&quot;rounded&quot;:0};" vertex="1" parent="qsiwKjfx9001ZlMrMq_o-10">
          <mxGeometry x="45" y="350" width="10" height="190" as="geometry" />
        </mxCell>
        <mxCell id="qsiwKjfx9001ZlMrMq_o-12" value="9. Kiểm tra định dạng" style="html=1;align=left;spacingLeft=2;endArrow=block;rounded=0;edgeStyle=orthogonalEdgeStyle;curved=0;rounded=0;exitX=0.5;exitY=0;exitDx=0;exitDy=0;exitPerimeter=0;" edge="1" parent="qsiwKjfx9001ZlMrMq_o-10" source="qsiwKjfx9001ZlMrMq_o-11" target="qsiwKjfx9001ZlMrMq_o-13">
          <mxGeometry x="0.0026" relative="1" as="geometry">
            <mxPoint x="60" y="350" as="sourcePoint" />
            <Array as="points">
              <mxPoint x="90" y="350" />
              <mxPoint x="90" y="400" />
            </Array>
            <mxPoint as="offset" />
          </mxGeometry>
        </mxCell>
        <mxCell id="qsiwKjfx9001ZlMrMq_o-13" value="" style="html=1;points=[[0,0,0,0,5],[0,1,0,0,-5],[1,0,0,0,5],[1,1,0,0,-5]];perimeter=orthogonalPerimeter;outlineConnect=0;targetShapes=umlLifeline;portConstraint=eastwest;newEdgeStyle={&quot;curved&quot;:0,&quot;rounded&quot;:0};" vertex="1" parent="qsiwKjfx9001ZlMrMq_o-10">
          <mxGeometry x="55" y="380" width="10" height="40" as="geometry" />
        </mxCell>
        <mxCell id="qsiwKjfx9001ZlMrMq_o-14" value="" style="html=1;points=[[0,0,0,0,5],[0,1,0,0,-5],[1,0,0,0,5],[1,1,0,0,-5]];perimeter=orthogonalPerimeter;outlineConnect=0;targetShapes=umlLifeline;portConstraint=eastwest;newEdgeStyle={&quot;curved&quot;:0,&quot;rounded&quot;:0};" vertex="1" parent="qsiwKjfx9001ZlMrMq_o-10">
          <mxGeometry x="55" y="469.99" width="10" height="50.01" as="geometry" />
        </mxCell>
        <mxCell id="qsiwKjfx9001ZlMrMq_o-15" value="11. Kiểm tra" style="html=1;align=left;spacingLeft=2;endArrow=block;rounded=0;edgeStyle=orthogonalEdgeStyle;curved=0;rounded=0;" edge="1" parent="qsiwKjfx9001ZlMrMq_o-10" target="qsiwKjfx9001ZlMrMq_o-14">
          <mxGeometry relative="1" as="geometry">
            <mxPoint x="55" y="460.00176470588235" as="sourcePoint" />
            <Array as="points">
              <mxPoint x="90" y="460" />
              <mxPoint x="90" y="480" />
            </Array>
          </mxGeometry>
        </mxCell>
        <mxCell id="qsiwKjfx9001ZlMrMq_o-16" value="2. Yêu cầu chọn thông tin sản phẩm" style="html=1;verticalAlign=bottom;endArrow=open;dashed=1;endSize=8;curved=0;rounded=0;" edge="1" parent="1" source="qsiwKjfx9001ZlMrMq_o-4" target="qsiwKjfx9001ZlMrMq_o-3">
          <mxGeometry relative="1" as="geometry">
            <mxPoint x="70" y="160" as="sourcePoint" />
            <mxPoint x="-10" y="160" as="targetPoint" />
            <Array as="points">
              <mxPoint x="-10" y="160" />
            </Array>
          </mxGeometry>
        </mxCell>
        <mxCell id="qsiwKjfx9001ZlMrMq_o-17" value="3. Nhập thông tin sản phẩm" style="html=1;verticalAlign=bottom;endArrow=block;curved=0;rounded=0;" edge="1" parent="1" source="qsiwKjfx9001ZlMrMq_o-3">
          <mxGeometry width="80" relative="1" as="geometry">
            <mxPoint x="-80" y="200" as="sourcePoint" />
            <mxPoint x="110" y="200" as="targetPoint" />
          </mxGeometry>
        </mxCell>
        <mxCell id="qsiwKjfx9001ZlMrMq_o-18" value="1. Gửi yêu cầu thêm sản phẩm vào giỏ" style="html=1;verticalAlign=bottom;endArrow=block;curved=0;rounded=0;" edge="1" parent="1">
          <mxGeometry width="80" relative="1" as="geometry">
            <mxPoint x="-85" y="120" as="sourcePoint" />
            <mxPoint x="110" y="120" as="targetPoint" />
          </mxGeometry>
        </mxCell>
        <mxCell id="qsiwKjfx9001ZlMrMq_o-19" value="8. CREATE: Gửi yêu cầu thêm" style="html=1;verticalAlign=bottom;endArrow=block;curved=0;rounded=0;" edge="1" parent="1">
          <mxGeometry width="80" relative="1" as="geometry">
            <mxPoint x="280" y="390" as="sourcePoint" />
            <mxPoint x="485" y="390" as="targetPoint" />
          </mxGeometry>
        </mxCell>
        <mxCell id="qsiwKjfx9001ZlMrMq_o-20" value="9.1. Sai: status code: 400" style="html=1;verticalAlign=bottom;endArrow=open;dashed=1;endSize=8;curved=0;rounded=0;" edge="1" parent="1">
          <mxGeometry relative="1" as="geometry">
            <mxPoint x="479.5" y="420" as="sourcePoint" />
            <mxPoint x="280" y="420" as="targetPoint" />
            <Array as="points">
              <mxPoint x="355" y="420" />
            </Array>
          </mxGeometry>
        </mxCell>
        <mxCell id="qsiwKjfx9001ZlMrMq_o-21" value="Database" style="shape=umlLifeline;perimeter=lifelinePerimeter;whiteSpace=wrap;html=1;container=1;dropTarget=0;collapsible=0;recursiveResize=0;outlineConnect=0;portConstraint=eastwest;newEdgeStyle={&quot;curved&quot;:0,&quot;rounded&quot;:0};" vertex="1" parent="1">
          <mxGeometry x="640" y="40" width="100" height="640" as="geometry" />
        </mxCell>
        <mxCell id="qsiwKjfx9001ZlMrMq_o-22" value="" style="html=1;points=[[0,0,0,0,5],[0,1,0,0,-5],[1,0,0,0,5],[1,1,0,0,-5]];perimeter=orthogonalPerimeter;outlineConnect=0;targetShapes=umlLifeline;portConstraint=eastwest;newEdgeStyle={&quot;curved&quot;:0,&quot;rounded&quot;:0};" vertex="1" parent="qsiwKjfx9001ZlMrMq_o-21">
          <mxGeometry x="45" y="420" width="10" height="90" as="geometry" />
        </mxCell>
        <mxCell id="qsiwKjfx9001ZlMrMq_o-23" value="" style="line;strokeWidth=2;html=1;fillColor=#f5f5f5;fontColor=#333333;strokeColor=#666666;" vertex="1" parent="1">
          <mxGeometry x="-160" width="930" height="10" as="geometry" />
        </mxCell>
        <mxCell id="qsiwKjfx9001ZlMrMq_o-24" value="Server" style="text;html=1;align=center;verticalAlign=middle;resizable=0;points=[];autosize=1;strokeColor=none;fillColor=none;" vertex="1" parent="1">
          <mxGeometry x="570" y="-30" width="60" height="30" as="geometry" />
        </mxCell>
        <mxCell id="qsiwKjfx9001ZlMrMq_o-25" value="Client" style="text;html=1;align=center;verticalAlign=middle;resizable=0;points=[];autosize=1;strokeColor=none;fillColor=none;" vertex="1" parent="1">
          <mxGeometry x="145" y="-30" width="50" height="30" as="geometry" />
        </mxCell>
        <mxCell id="qsiwKjfx9001ZlMrMq_o-26" value="ViewModel" style="shape=umlLifeline;perimeter=lifelinePerimeter;whiteSpace=wrap;html=1;container=1;dropTarget=0;collapsible=0;recursiveResize=0;outlineConnect=0;portConstraint=eastwest;newEdgeStyle={&quot;curved&quot;:0,&quot;rounded&quot;:0};" vertex="1" parent="1">
          <mxGeometry x="230" y="40" width="100" height="640" as="geometry" />
        </mxCell>
        <mxCell id="qsiwKjfx9001ZlMrMq_o-27" value="" style="html=1;points=[[0,0,0,0,5],[0,1,0,0,-5],[1,0,0,0,5],[1,1,0,0,-5]];perimeter=orthogonalPerimeter;outlineConnect=0;targetShapes=umlLifeline;portConstraint=eastwest;newEdgeStyle={&quot;curved&quot;:0,&quot;rounded&quot;:0};" vertex="1" parent="qsiwKjfx9001ZlMrMq_o-26">
          <mxGeometry x="45" y="170" width="10" height="110" as="geometry" />
        </mxCell>
        <mxCell id="qsiwKjfx9001ZlMrMq_o-28" value="5. Kiểm tra định dạng" style="html=1;align=left;spacingLeft=2;endArrow=block;rounded=0;edgeStyle=orthogonalEdgeStyle;curved=0;rounded=0;" edge="1" parent="qsiwKjfx9001ZlMrMq_o-26" target="qsiwKjfx9001ZlMrMq_o-29">
          <mxGeometry relative="1" as="geometry">
            <mxPoint x="55" y="170" as="sourcePoint" />
            <Array as="points">
              <mxPoint x="85" y="200" />
            </Array>
          </mxGeometry>
        </mxCell>
        <mxCell id="qsiwKjfx9001ZlMrMq_o-29" value="" style="html=1;points=[[0,0,0,0,5],[0,1,0,0,-5],[1,0,0,0,5],[1,1,0,0,-5]];perimeter=orthogonalPerimeter;outlineConnect=0;targetShapes=umlLifeline;portConstraint=eastwest;newEdgeStyle={&quot;curved&quot;:0,&quot;rounded&quot;:0};" vertex="1" parent="qsiwKjfx9001ZlMrMq_o-26">
          <mxGeometry x="50" y="190" width="10" height="70" as="geometry" />
        </mxCell>
        <mxCell id="qsiwKjfx9001ZlMrMq_o-30" value="" style="html=1;points=[[0,0,0,0,5],[0,1,0,0,-5],[1,0,0,0,5],[1,1,0,0,-5]];perimeter=orthogonalPerimeter;outlineConnect=0;targetShapes=umlLifeline;portConstraint=eastwest;newEdgeStyle={&quot;curved&quot;:0,&quot;rounded&quot;:0};" vertex="1" parent="qsiwKjfx9001ZlMrMq_o-26">
          <mxGeometry x="45" y="330" width="10" height="20" as="geometry" />
        </mxCell>
        <mxCell id="qsiwKjfx9001ZlMrMq_o-31" value="" style="html=1;points=[[0,0,0,0,5],[0,1,0,0,-5],[1,0,0,0,5],[1,1,0,0,-5]];perimeter=orthogonalPerimeter;outlineConnect=0;targetShapes=umlLifeline;portConstraint=eastwest;newEdgeStyle={&quot;curved&quot;:0,&quot;rounded&quot;:0};" vertex="1" parent="qsiwKjfx9001ZlMrMq_o-26">
          <mxGeometry x="45" y="380" width="10" height="20" as="geometry" />
        </mxCell>
        <mxCell id="qsiwKjfx9001ZlMrMq_o-32" value="" style="html=1;points=[[0,0,0,0,5],[0,1,0,0,-5],[1,0,0,0,5],[1,1,0,0,-5]];perimeter=orthogonalPerimeter;outlineConnect=0;targetShapes=umlLifeline;portConstraint=eastwest;newEdgeStyle={&quot;curved&quot;:0,&quot;rounded&quot;:0};" vertex="1" parent="qsiwKjfx9001ZlMrMq_o-26">
          <mxGeometry x="45" y="490" width="10" height="110" as="geometry" />
        </mxCell>
        <mxCell id="qsiwKjfx9001ZlMrMq_o-33" value="4. Gửi thông tin sản phẩm" style="html=1;verticalAlign=bottom;endArrow=block;curved=0;rounded=0;" edge="1" parent="1" source="qsiwKjfx9001ZlMrMq_o-6">
          <mxGeometry width="80" relative="1" as="geometry">
            <mxPoint x="120" y="215" as="sourcePoint" />
            <mxPoint x="275" y="214.88" as="targetPoint" />
          </mxGeometry>
        </mxCell>
        <mxCell id="qsiwKjfx9001ZlMrMq_o-34" value="" style="line;strokeWidth=2;direction=south;html=1;fillColor=#f5f5f5;fontColor=#333333;strokeColor=#666666;" vertex="1" parent="1">
          <mxGeometry x="390" y="-20" width="10" height="700" as="geometry" />
        </mxCell>
        <mxCell id="qsiwKjfx9001ZlMrMq_o-35" value="11.2.1. Hiển thị thông báo thêm sản phẩm vào giỏ thành công" style="html=1;verticalAlign=bottom;endArrow=open;dashed=1;endSize=8;curved=0;rounded=0;" edge="1" parent="1" source="qsiwKjfx9001ZlMrMq_o-26" target="qsiwKjfx9001ZlMrMq_o-2">
          <mxGeometry x="-0.0588" relative="1" as="geometry">
            <mxPoint x="257.5" y="640" as="sourcePoint" />
            <mxPoint x="82.5" y="640" as="targetPoint" />
            <Array as="points">
              <mxPoint x="137.5" y="640" />
            </Array>
            <mxPoint as="offset" />
          </mxGeometry>
        </mxCell>
        <mxCell id="qsiwKjfx9001ZlMrMq_o-36" value="5.1. Sai: hiển thị thông báo lỗi" style="html=1;verticalAlign=bottom;endArrow=open;dashed=1;endSize=8;curved=0;rounded=0;" edge="1" parent="1" source="qsiwKjfx9001ZlMrMq_o-29">
          <mxGeometry relative="1" as="geometry">
            <mxPoint x="269.75" y="249.38" as="sourcePoint" />
            <mxPoint x="110" y="249" as="targetPoint" />
            <Array as="points" />
          </mxGeometry>
        </mxCell>
        <mxCell id="qsiwKjfx9001ZlMrMq_o-37" value="5.2. Đúng: không hiện thị &lt;br&gt;thông báo lỗi" style="html=1;verticalAlign=bottom;endArrow=open;dashed=1;endSize=8;curved=0;rounded=0;" edge="1" parent="1">
          <mxGeometry relative="1" as="geometry">
            <mxPoint x="280" y="300" as="sourcePoint" />
            <mxPoint x="110" y="300" as="targetPoint" />
            <Array as="points" />
          </mxGeometry>
        </mxCell>
        <mxCell id="qsiwKjfx9001ZlMrMq_o-38" value="6. Nhấn thêm sản phẩm" style="html=1;verticalAlign=bottom;endArrow=block;curved=0;rounded=0;" edge="1" parent="1">
          <mxGeometry width="80" relative="1" as="geometry">
            <mxPoint x="-85" y="350" as="sourcePoint" />
            <mxPoint x="110" y="350" as="targetPoint" />
          </mxGeometry>
        </mxCell>
        <mxCell id="qsiwKjfx9001ZlMrMq_o-39" value="7. Gửi thông tin sản phẩm" style="html=1;verticalAlign=bottom;endArrow=block;curved=0;rounded=0;" edge="1" parent="1">
          <mxGeometry width="80" relative="1" as="geometry">
            <mxPoint x="115" y="370.12" as="sourcePoint" />
            <mxPoint x="275" y="370" as="targetPoint" />
          </mxGeometry>
        </mxCell>
        <mxCell id="qsiwKjfx9001ZlMrMq_o-40" value="9.1.1. Hiển thị thông báo lỗi" style="html=1;verticalAlign=bottom;endArrow=open;dashed=1;endSize=8;curved=0;rounded=0;" edge="1" parent="1">
          <mxGeometry relative="1" as="geometry">
            <mxPoint x="279.5" y="440" as="sourcePoint" />
            <mxPoint x="110" y="440" as="targetPoint" />
            <Array as="points">
              <mxPoint x="155" y="440" />
            </Array>
          </mxGeometry>
        </mxCell>
        <mxCell id="qsiwKjfx9001ZlMrMq_o-41" value="9.2. Đúng: truy vấn dữ liệu" style="html=1;verticalAlign=bottom;endArrow=block;curved=0;rounded=0;" edge="1" parent="1">
          <mxGeometry width="80" relative="1" as="geometry">
            <mxPoint x="500" y="460" as="sourcePoint" />
            <mxPoint x="690" y="460" as="targetPoint" />
          </mxGeometry>
        </mxCell>
        <mxCell id="qsiwKjfx9001ZlMrMq_o-42" value="10. Trả kết quả" style="html=1;verticalAlign=bottom;endArrow=open;dashed=1;endSize=8;curved=0;rounded=0;" edge="1" parent="1" target="qsiwKjfx9001ZlMrMq_o-10">
          <mxGeometry relative="1" as="geometry">
            <mxPoint x="680" y="490" as="sourcePoint" />
            <mxPoint x="530" y="490" as="targetPoint" />
            <Array as="points" />
          </mxGeometry>
        </mxCell>
        <mxCell id="qsiwKjfx9001ZlMrMq_o-43" value="11.1. Thất bại: Status code 400" style="html=1;verticalAlign=bottom;endArrow=open;dashed=1;endSize=8;curved=0;rounded=0;" edge="1" parent="1" target="qsiwKjfx9001ZlMrMq_o-26">
          <mxGeometry relative="1" as="geometry">
            <mxPoint x="494.75" y="530" as="sourcePoint" />
            <mxPoint x="295.25" y="530" as="targetPoint" />
            <Array as="points" />
          </mxGeometry>
        </mxCell>
        <mxCell id="qsiwKjfx9001ZlMrMq_o-44" value="11.2. Thành công: Status code 200" style="html=1;verticalAlign=bottom;endArrow=open;dashed=1;endSize=8;curved=0;rounded=0;" edge="1" parent="1">
          <mxGeometry relative="1" as="geometry">
            <mxPoint x="494.75" y="560" as="sourcePoint" />
            <mxPoint x="279" y="560" as="targetPoint" />
            <Array as="points" />
          </mxGeometry>
        </mxCell>
        <mxCell id="qsiwKjfx9001ZlMrMq_o-45" value="11.1.1. Hiển thị thông báo lỗi" style="html=1;verticalAlign=bottom;endArrow=open;dashed=1;endSize=8;curved=0;rounded=0;" edge="1" parent="1">
          <mxGeometry relative="1" as="geometry">
            <mxPoint x="270" y="550" as="sourcePoint" />
            <mxPoint x="110" y="550" as="targetPoint" />
            <Array as="points">
              <mxPoint x="145" y="550" />
            </Array>
          </mxGeometry>
        </mxCell>
      </root>
    </mxGraphModel>
  </diagram>
  <diagram id="N7A4LmD0q6raFcFsNReB" name="Page-2">
    <mxGraphModel dx="2240" dy="1691" grid="1" gridSize="10" guides="1" tooltips="1" connect="1" arrows="1" fold="1" page="1" pageScale="1" pageWidth="850" pageHeight="1100" math="0" shadow="0">
      <root>
        <mxCell id="0" />
        <mxCell id="1" parent="0" />
        <mxCell id="yhLA4_aZgNxucNjjAlGV-1" value="" style="line;strokeWidth=2;direction=south;html=1;fillColor=#f5f5f5;fontColor=#333333;strokeColor=#666666;" vertex="1" parent="1">
          <mxGeometry x="400" y="-50" width="10" height="550" as="geometry" />
        </mxCell>
        <mxCell id="yhLA4_aZgNxucNjjAlGV-2" value="Quản trị viên/ Nhân viên" style="shape=umlLifeline;perimeter=lifelinePerimeter;whiteSpace=wrap;html=1;container=1;dropTarget=0;collapsible=0;recursiveResize=0;outlineConnect=0;portConstraint=eastwest;newEdgeStyle={&quot;curved&quot;:0,&quot;rounded&quot;:0};" vertex="1" parent="1">
          <mxGeometry x="-130" y="50" width="100" height="640" as="geometry" />
        </mxCell>
        <mxCell id="yhLA4_aZgNxucNjjAlGV-3" value="" style="html=1;points=[[0,0,0,0,5],[0,1,0,0,-5],[1,0,0,0,5],[1,1,0,0,-5]];perimeter=orthogonalPerimeter;outlineConnect=0;targetShapes=umlLifeline;portConstraint=eastwest;newEdgeStyle={&quot;curved&quot;:0,&quot;rounded&quot;:0};" vertex="1" parent="yhLA4_aZgNxucNjjAlGV-2">
          <mxGeometry x="45" y="80" width="10" height="230" as="geometry" />
        </mxCell>
        <mxCell id="yhLA4_aZgNxucNjjAlGV-4" value="Form" style="shape=umlLifeline;perimeter=lifelinePerimeter;whiteSpace=wrap;html=1;container=1;dropTarget=0;collapsible=0;recursiveResize=0;outlineConnect=0;portConstraint=eastwest;newEdgeStyle={&quot;curved&quot;:0,&quot;rounded&quot;:0};" vertex="1" parent="1">
          <mxGeometry x="70" y="50" width="100" height="640" as="geometry" />
        </mxCell>
        <mxCell id="yhLA4_aZgNxucNjjAlGV-5" value="" style="html=1;points=[[0,0,0,0,5],[0,1,0,0,-5],[1,0,0,0,5],[1,1,0,0,-5]];perimeter=orthogonalPerimeter;outlineConnect=0;targetShapes=umlLifeline;portConstraint=eastwest;newEdgeStyle={&quot;curved&quot;:0,&quot;rounded&quot;:0};" vertex="1" parent="yhLA4_aZgNxucNjjAlGV-4">
          <mxGeometry x="45" y="80" width="10" height="40" as="geometry" />
        </mxCell>
        <mxCell id="yhLA4_aZgNxucNjjAlGV-6" value="" style="html=1;points=[[0,0,0,0,5],[0,1,0,0,-5],[1,0,0,0,5],[1,1,0,0,-5]];perimeter=orthogonalPerimeter;outlineConnect=0;targetShapes=umlLifeline;portConstraint=eastwest;newEdgeStyle={&quot;curved&quot;:0,&quot;rounded&quot;:0};" vertex="1" parent="yhLA4_aZgNxucNjjAlGV-4">
          <mxGeometry x="45" y="160" width="10" height="120" as="geometry" />
        </mxCell>
        <mxCell id="yhLA4_aZgNxucNjjAlGV-7" value="" style="html=1;points=[[0,0,0,0,5],[0,1,0,0,-5],[1,0,0,0,5],[1,1,0,0,-5]];perimeter=orthogonalPerimeter;outlineConnect=0;targetShapes=umlLifeline;portConstraint=eastwest;newEdgeStyle={&quot;curved&quot;:0,&quot;rounded&quot;:0};" vertex="1" parent="yhLA4_aZgNxucNjjAlGV-4">
          <mxGeometry x="45" y="310" width="10" height="20" as="geometry" />
        </mxCell>
        <mxCell id="yhLA4_aZgNxucNjjAlGV-8" value="" style="html=1;points=[[0,0,0,0,5],[0,1,0,0,-5],[1,0,0,0,5],[1,1,0,0,-5]];perimeter=orthogonalPerimeter;outlineConnect=0;targetShapes=umlLifeline;portConstraint=eastwest;newEdgeStyle={&quot;curved&quot;:0,&quot;rounded&quot;:0};" vertex="1" parent="yhLA4_aZgNxucNjjAlGV-4">
          <mxGeometry x="45" y="400" width="10" height="20" as="geometry" />
        </mxCell>
        <mxCell id="yhLA4_aZgNxucNjjAlGV-9" value="" style="html=1;points=[[0,0,0,0,5],[0,1,0,0,-5],[1,0,0,0,5],[1,1,0,0,-5]];perimeter=orthogonalPerimeter;outlineConnect=0;targetShapes=umlLifeline;portConstraint=eastwest;newEdgeStyle={&quot;curved&quot;:0,&quot;rounded&quot;:0};" vertex="1" parent="yhLA4_aZgNxucNjjAlGV-4">
          <mxGeometry x="45" y="510" width="10" height="20" as="geometry" />
        </mxCell>
        <mxCell id="yhLA4_aZgNxucNjjAlGV-10" value="Controller" style="shape=umlLifeline;perimeter=lifelinePerimeter;whiteSpace=wrap;html=1;container=1;dropTarget=0;collapsible=0;recursiveResize=0;outlineConnect=0;portConstraint=eastwest;newEdgeStyle={&quot;curved&quot;:0,&quot;rounded&quot;:0};" vertex="1" parent="1">
          <mxGeometry x="450" y="50" width="100" height="640" as="geometry" />
        </mxCell>
        <mxCell id="yhLA4_aZgNxucNjjAlGV-11" value="" style="html=1;points=[[0,0,0,0,5],[0,1,0,0,-5],[1,0,0,0,5],[1,1,0,0,-5]];perimeter=orthogonalPerimeter;outlineConnect=0;targetShapes=umlLifeline;portConstraint=eastwest;newEdgeStyle={&quot;curved&quot;:0,&quot;rounded&quot;:0};" vertex="1" parent="yhLA4_aZgNxucNjjAlGV-10">
          <mxGeometry x="45" y="350" width="10" height="190" as="geometry" />
        </mxCell>
        <mxCell id="yhLA4_aZgNxucNjjAlGV-12" value="9. Kiểm tra định dạng" style="html=1;align=left;spacingLeft=2;endArrow=block;rounded=0;edgeStyle=orthogonalEdgeStyle;curved=0;rounded=0;exitX=0.5;exitY=0;exitDx=0;exitDy=0;exitPerimeter=0;" edge="1" parent="yhLA4_aZgNxucNjjAlGV-10" source="yhLA4_aZgNxucNjjAlGV-11" target="yhLA4_aZgNxucNjjAlGV-13">
          <mxGeometry x="0.0026" relative="1" as="geometry">
            <mxPoint x="60" y="350" as="sourcePoint" />
            <Array as="points">
              <mxPoint x="90" y="350" />
              <mxPoint x="90" y="400" />
            </Array>
            <mxPoint as="offset" />
          </mxGeometry>
        </mxCell>
        <mxCell id="yhLA4_aZgNxucNjjAlGV-13" value="" style="html=1;points=[[0,0,0,0,5],[0,1,0,0,-5],[1,0,0,0,5],[1,1,0,0,-5]];perimeter=orthogonalPerimeter;outlineConnect=0;targetShapes=umlLifeline;portConstraint=eastwest;newEdgeStyle={&quot;curved&quot;:0,&quot;rounded&quot;:0};" vertex="1" parent="yhLA4_aZgNxucNjjAlGV-10">
          <mxGeometry x="55" y="380" width="10" height="40" as="geometry" />
        </mxCell>
        <mxCell id="yhLA4_aZgNxucNjjAlGV-14" value="" style="html=1;points=[[0,0,0,0,5],[0,1,0,0,-5],[1,0,0,0,5],[1,1,0,0,-5]];perimeter=orthogonalPerimeter;outlineConnect=0;targetShapes=umlLifeline;portConstraint=eastwest;newEdgeStyle={&quot;curved&quot;:0,&quot;rounded&quot;:0};" vertex="1" parent="yhLA4_aZgNxucNjjAlGV-10">
          <mxGeometry x="55" y="469.99" width="10" height="50.01" as="geometry" />
        </mxCell>
        <mxCell id="yhLA4_aZgNxucNjjAlGV-15" value="11. Kiểm tra" style="html=1;align=left;spacingLeft=2;endArrow=block;rounded=0;edgeStyle=orthogonalEdgeStyle;curved=0;rounded=0;" edge="1" parent="yhLA4_aZgNxucNjjAlGV-10" target="yhLA4_aZgNxucNjjAlGV-14">
          <mxGeometry relative="1" as="geometry">
            <mxPoint x="55" y="460.00176470588235" as="sourcePoint" />
            <Array as="points">
              <mxPoint x="90" y="460" />
              <mxPoint x="90" y="480" />
            </Array>
          </mxGeometry>
        </mxCell>
        <mxCell id="yhLA4_aZgNxucNjjAlGV-16" value="2. Yêu cầu nhập thông tin sản phẩm" style="html=1;verticalAlign=bottom;endArrow=open;dashed=1;endSize=8;curved=0;rounded=0;" edge="1" parent="1" source="yhLA4_aZgNxucNjjAlGV-4" target="yhLA4_aZgNxucNjjAlGV-3">
          <mxGeometry relative="1" as="geometry">
            <mxPoint x="80" y="170" as="sourcePoint" />
            <mxPoint y="170" as="targetPoint" />
            <Array as="points">
              <mxPoint y="170" />
            </Array>
          </mxGeometry>
        </mxCell>
        <mxCell id="yhLA4_aZgNxucNjjAlGV-17" value="3. Nhập thông tin sản phẩm" style="html=1;verticalAlign=bottom;endArrow=block;curved=0;rounded=0;" edge="1" parent="1" source="yhLA4_aZgNxucNjjAlGV-3">
          <mxGeometry width="80" relative="1" as="geometry">
            <mxPoint x="-70" y="210" as="sourcePoint" />
            <mxPoint x="120" y="210" as="targetPoint" />
          </mxGeometry>
        </mxCell>
        <mxCell id="yhLA4_aZgNxucNjjAlGV-18" value="1. Gửi yêu cầu cập nhật sản phẩm&lt;br&gt;trong giỏ hàng&amp;nbsp;" style="html=1;verticalAlign=bottom;endArrow=block;curved=0;rounded=0;" edge="1" parent="1">
          <mxGeometry width="80" relative="1" as="geometry">
            <mxPoint x="-75" y="130" as="sourcePoint" />
            <mxPoint x="120" y="130" as="targetPoint" />
          </mxGeometry>
        </mxCell>
        <mxCell id="yhLA4_aZgNxucNjjAlGV-19" value="8. PATCH: Gửi yêu cầu cập nhật" style="html=1;verticalAlign=bottom;endArrow=block;curved=0;rounded=0;" edge="1" parent="1">
          <mxGeometry width="80" relative="1" as="geometry">
            <mxPoint x="290" y="400" as="sourcePoint" />
            <mxPoint x="495" y="400" as="targetPoint" />
          </mxGeometry>
        </mxCell>
        <mxCell id="yhLA4_aZgNxucNjjAlGV-20" value="9.1. Sai: status code: 400" style="html=1;verticalAlign=bottom;endArrow=open;dashed=1;endSize=8;curved=0;rounded=0;" edge="1" parent="1">
          <mxGeometry relative="1" as="geometry">
            <mxPoint x="489.5" y="430" as="sourcePoint" />
            <mxPoint x="290" y="430" as="targetPoint" />
            <Array as="points">
              <mxPoint x="365" y="430" />
            </Array>
          </mxGeometry>
        </mxCell>
        <mxCell id="yhLA4_aZgNxucNjjAlGV-21" value="Database" style="shape=umlLifeline;perimeter=lifelinePerimeter;whiteSpace=wrap;html=1;container=1;dropTarget=0;collapsible=0;recursiveResize=0;outlineConnect=0;portConstraint=eastwest;newEdgeStyle={&quot;curved&quot;:0,&quot;rounded&quot;:0};" vertex="1" parent="1">
          <mxGeometry x="650" y="50" width="100" height="640" as="geometry" />
        </mxCell>
        <mxCell id="yhLA4_aZgNxucNjjAlGV-22" value="" style="html=1;points=[[0,0,0,0,5],[0,1,0,0,-5],[1,0,0,0,5],[1,1,0,0,-5]];perimeter=orthogonalPerimeter;outlineConnect=0;targetShapes=umlLifeline;portConstraint=eastwest;newEdgeStyle={&quot;curved&quot;:0,&quot;rounded&quot;:0};" vertex="1" parent="yhLA4_aZgNxucNjjAlGV-21">
          <mxGeometry x="45" y="420" width="10" height="90" as="geometry" />
        </mxCell>
        <mxCell id="yhLA4_aZgNxucNjjAlGV-23" value="" style="line;strokeWidth=2;html=1;fillColor=#f5f5f5;fontColor=#333333;strokeColor=#666666;" vertex="1" parent="1">
          <mxGeometry x="-150" y="10" width="930" height="10" as="geometry" />
        </mxCell>
        <mxCell id="yhLA4_aZgNxucNjjAlGV-24" value="Server" style="text;html=1;align=center;verticalAlign=middle;resizable=0;points=[];autosize=1;strokeColor=none;fillColor=none;" vertex="1" parent="1">
          <mxGeometry x="580" y="-20" width="60" height="30" as="geometry" />
        </mxCell>
        <mxCell id="yhLA4_aZgNxucNjjAlGV-25" value="Client" style="text;html=1;align=center;verticalAlign=middle;resizable=0;points=[];autosize=1;strokeColor=none;fillColor=none;" vertex="1" parent="1">
          <mxGeometry x="155" y="-20" width="50" height="30" as="geometry" />
        </mxCell>
        <mxCell id="yhLA4_aZgNxucNjjAlGV-26" value="ViewModel" style="shape=umlLifeline;perimeter=lifelinePerimeter;whiteSpace=wrap;html=1;container=1;dropTarget=0;collapsible=0;recursiveResize=0;outlineConnect=0;portConstraint=eastwest;newEdgeStyle={&quot;curved&quot;:0,&quot;rounded&quot;:0};" vertex="1" parent="1">
          <mxGeometry x="240" y="50" width="100" height="640" as="geometry" />
        </mxCell>
        <mxCell id="yhLA4_aZgNxucNjjAlGV-27" value="" style="html=1;points=[[0,0,0,0,5],[0,1,0,0,-5],[1,0,0,0,5],[1,1,0,0,-5]];perimeter=orthogonalPerimeter;outlineConnect=0;targetShapes=umlLifeline;portConstraint=eastwest;newEdgeStyle={&quot;curved&quot;:0,&quot;rounded&quot;:0};" vertex="1" parent="yhLA4_aZgNxucNjjAlGV-26">
          <mxGeometry x="45" y="170" width="10" height="110" as="geometry" />
        </mxCell>
        <mxCell id="yhLA4_aZgNxucNjjAlGV-28" value="5. Kiểm tra định dạng" style="html=1;align=left;spacingLeft=2;endArrow=block;rounded=0;edgeStyle=orthogonalEdgeStyle;curved=0;rounded=0;" edge="1" parent="yhLA4_aZgNxucNjjAlGV-26" target="yhLA4_aZgNxucNjjAlGV-29">
          <mxGeometry relative="1" as="geometry">
            <mxPoint x="55" y="170" as="sourcePoint" />
            <Array as="points">
              <mxPoint x="85" y="200" />
            </Array>
          </mxGeometry>
        </mxCell>
        <mxCell id="yhLA4_aZgNxucNjjAlGV-29" value="" style="html=1;points=[[0,0,0,0,5],[0,1,0,0,-5],[1,0,0,0,5],[1,1,0,0,-5]];perimeter=orthogonalPerimeter;outlineConnect=0;targetShapes=umlLifeline;portConstraint=eastwest;newEdgeStyle={&quot;curved&quot;:0,&quot;rounded&quot;:0};" vertex="1" parent="yhLA4_aZgNxucNjjAlGV-26">
          <mxGeometry x="50" y="190" width="10" height="70" as="geometry" />
        </mxCell>
        <mxCell id="yhLA4_aZgNxucNjjAlGV-30" value="" style="html=1;points=[[0,0,0,0,5],[0,1,0,0,-5],[1,0,0,0,5],[1,1,0,0,-5]];perimeter=orthogonalPerimeter;outlineConnect=0;targetShapes=umlLifeline;portConstraint=eastwest;newEdgeStyle={&quot;curved&quot;:0,&quot;rounded&quot;:0};" vertex="1" parent="yhLA4_aZgNxucNjjAlGV-26">
          <mxGeometry x="45" y="330" width="10" height="20" as="geometry" />
        </mxCell>
        <mxCell id="yhLA4_aZgNxucNjjAlGV-31" value="" style="html=1;points=[[0,0,0,0,5],[0,1,0,0,-5],[1,0,0,0,5],[1,1,0,0,-5]];perimeter=orthogonalPerimeter;outlineConnect=0;targetShapes=umlLifeline;portConstraint=eastwest;newEdgeStyle={&quot;curved&quot;:0,&quot;rounded&quot;:0};" vertex="1" parent="yhLA4_aZgNxucNjjAlGV-26">
          <mxGeometry x="45" y="380" width="10" height="20" as="geometry" />
        </mxCell>
        <mxCell id="yhLA4_aZgNxucNjjAlGV-32" value="" style="html=1;points=[[0,0,0,0,5],[0,1,0,0,-5],[1,0,0,0,5],[1,1,0,0,-5]];perimeter=orthogonalPerimeter;outlineConnect=0;targetShapes=umlLifeline;portConstraint=eastwest;newEdgeStyle={&quot;curved&quot;:0,&quot;rounded&quot;:0};" vertex="1" parent="yhLA4_aZgNxucNjjAlGV-26">
          <mxGeometry x="45" y="490" width="10" height="110" as="geometry" />
        </mxCell>
        <mxCell id="yhLA4_aZgNxucNjjAlGV-33" value="4. Gửi thông tin sản phẩm" style="html=1;verticalAlign=bottom;endArrow=block;curved=0;rounded=0;" edge="1" parent="1" source="yhLA4_aZgNxucNjjAlGV-6">
          <mxGeometry width="80" relative="1" as="geometry">
            <mxPoint x="130" y="225" as="sourcePoint" />
            <mxPoint x="285" y="224.88" as="targetPoint" />
          </mxGeometry>
        </mxCell>
        <mxCell id="yhLA4_aZgNxucNjjAlGV-34" value="" style="line;strokeWidth=2;direction=south;html=1;fillColor=#f5f5f5;fontColor=#333333;strokeColor=#666666;" vertex="1" parent="1">
          <mxGeometry x="400" y="-10" width="10" height="700" as="geometry" />
        </mxCell>
        <mxCell id="yhLA4_aZgNxucNjjAlGV-35" value="11.2.1. Hiển thị thông báo cập nhật sản phẩm trong giỏ&amp;nbsp; thành công,&lt;br&gt;hiển thị lại trang danh sách sản phẩm sau cập nhật" style="html=1;verticalAlign=bottom;endArrow=open;dashed=1;endSize=8;curved=0;rounded=0;" edge="1" parent="1" source="yhLA4_aZgNxucNjjAlGV-26" target="yhLA4_aZgNxucNjjAlGV-2">
          <mxGeometry x="-0.0588" relative="1" as="geometry">
            <mxPoint x="267.5" y="650" as="sourcePoint" />
            <mxPoint x="92.5" y="650" as="targetPoint" />
            <Array as="points">
              <mxPoint x="147.5" y="650" />
            </Array>
            <mxPoint as="offset" />
          </mxGeometry>
        </mxCell>
        <mxCell id="yhLA4_aZgNxucNjjAlGV-36" value="5.1. Sai: hiển thị thông báo lỗi" style="html=1;verticalAlign=bottom;endArrow=open;dashed=1;endSize=8;curved=0;rounded=0;" edge="1" parent="1" source="yhLA4_aZgNxucNjjAlGV-29">
          <mxGeometry relative="1" as="geometry">
            <mxPoint x="279.75" y="259.38" as="sourcePoint" />
            <mxPoint x="120" y="259" as="targetPoint" />
            <Array as="points" />
          </mxGeometry>
        </mxCell>
        <mxCell id="yhLA4_aZgNxucNjjAlGV-37" value="5.2. Đúng:&amp;nbsp; không hiển thị &lt;br&gt;thông báo lỗi" style="html=1;verticalAlign=bottom;endArrow=open;dashed=1;endSize=8;curved=0;rounded=0;" edge="1" parent="1">
          <mxGeometry relative="1" as="geometry">
            <mxPoint x="290" y="310" as="sourcePoint" />
            <mxPoint x="120" y="310" as="targetPoint" />
            <Array as="points" />
          </mxGeometry>
        </mxCell>
        <mxCell id="yhLA4_aZgNxucNjjAlGV-38" value="6. Nhấn cập nhật sản phẩm" style="html=1;verticalAlign=bottom;endArrow=block;curved=0;rounded=0;" edge="1" parent="1">
          <mxGeometry width="80" relative="1" as="geometry">
            <mxPoint x="-75" y="360" as="sourcePoint" />
            <mxPoint x="120" y="360" as="targetPoint" />
          </mxGeometry>
        </mxCell>
        <mxCell id="yhLA4_aZgNxucNjjAlGV-39" value="7. Gửi thông tin sản phẩm" style="html=1;verticalAlign=bottom;endArrow=block;curved=0;rounded=0;" edge="1" parent="1">
          <mxGeometry width="80" relative="1" as="geometry">
            <mxPoint x="125" y="380.12" as="sourcePoint" />
            <mxPoint x="285" y="380" as="targetPoint" />
          </mxGeometry>
        </mxCell>
        <mxCell id="yhLA4_aZgNxucNjjAlGV-40" value="9.1.1. Hiển thị thông báo lỗi" style="html=1;verticalAlign=bottom;endArrow=open;dashed=1;endSize=8;curved=0;rounded=0;" edge="1" parent="1">
          <mxGeometry relative="1" as="geometry">
            <mxPoint x="289.5" y="450" as="sourcePoint" />
            <mxPoint x="120" y="450" as="targetPoint" />
            <Array as="points">
              <mxPoint x="165" y="450" />
            </Array>
          </mxGeometry>
        </mxCell>
        <mxCell id="yhLA4_aZgNxucNjjAlGV-41" value="9.2. Đúng: truy vấn dữ liệu" style="html=1;verticalAlign=bottom;endArrow=block;curved=0;rounded=0;" edge="1" parent="1">
          <mxGeometry width="80" relative="1" as="geometry">
            <mxPoint x="510" y="470" as="sourcePoint" />
            <mxPoint x="700" y="470" as="targetPoint" />
          </mxGeometry>
        </mxCell>
        <mxCell id="yhLA4_aZgNxucNjjAlGV-42" value="10. Trả kết quả" style="html=1;verticalAlign=bottom;endArrow=open;dashed=1;endSize=8;curved=0;rounded=0;" edge="1" parent="1" target="yhLA4_aZgNxucNjjAlGV-10">
          <mxGeometry relative="1" as="geometry">
            <mxPoint x="690" y="500" as="sourcePoint" />
            <mxPoint x="540" y="500" as="targetPoint" />
            <Array as="points" />
          </mxGeometry>
        </mxCell>
        <mxCell id="yhLA4_aZgNxucNjjAlGV-43" value="11.1. Thất bại: Status code 400" style="html=1;verticalAlign=bottom;endArrow=open;dashed=1;endSize=8;curved=0;rounded=0;" edge="1" parent="1" target="yhLA4_aZgNxucNjjAlGV-26">
          <mxGeometry relative="1" as="geometry">
            <mxPoint x="504.75" y="540" as="sourcePoint" />
            <mxPoint x="305.25" y="540" as="targetPoint" />
            <Array as="points" />
          </mxGeometry>
        </mxCell>
        <mxCell id="yhLA4_aZgNxucNjjAlGV-44" value="11.2. Thành công: Status code 200" style="html=1;verticalAlign=bottom;endArrow=open;dashed=1;endSize=8;curved=0;rounded=0;" edge="1" parent="1">
          <mxGeometry relative="1" as="geometry">
            <mxPoint x="504.75" y="570" as="sourcePoint" />
            <mxPoint x="289" y="570" as="targetPoint" />
            <Array as="points" />
          </mxGeometry>
        </mxCell>
        <mxCell id="yhLA4_aZgNxucNjjAlGV-45" value="11.1.1. Hiển thị thông báo lỗi" style="html=1;verticalAlign=bottom;endArrow=open;dashed=1;endSize=8;curved=0;rounded=0;" edge="1" parent="1">
          <mxGeometry relative="1" as="geometry">
            <mxPoint x="280" y="560" as="sourcePoint" />
            <mxPoint x="120" y="560" as="targetPoint" />
            <Array as="points">
              <mxPoint x="155" y="560" />
            </Array>
          </mxGeometry>
        </mxCell>
      </root>
    </mxGraphModel>
  </diagram>
  <diagram id="QsP6jaHBYK9CBTkh8rV9" name="Page-3">
    <mxGraphModel dx="1962" dy="1573" grid="1" gridSize="10" guides="1" tooltips="1" connect="1" arrows="1" fold="1" page="1" pageScale="1" pageWidth="850" pageHeight="1100" math="0" shadow="0">
      <root>
        <mxCell id="0" />
        <mxCell id="1" parent="0" />
        <mxCell id="_VooXeqQFyOwJ9W8HVB8-1" value="Quản trị viên / Nhân viên" style="shape=umlLifeline;perimeter=lifelinePerimeter;whiteSpace=wrap;html=1;container=1;dropTarget=0;collapsible=0;recursiveResize=0;outlineConnect=0;portConstraint=eastwest;newEdgeStyle={&quot;curved&quot;:0,&quot;rounded&quot;:0};" vertex="1" parent="1">
          <mxGeometry x="-140" y="70" width="100" height="490" as="geometry" />
        </mxCell>
        <mxCell id="_VooXeqQFyOwJ9W8HVB8-2" value="" style="html=1;points=[[0,0,0,0,5],[0,1,0,0,-5],[1,0,0,0,5],[1,1,0,0,-5]];perimeter=orthogonalPerimeter;outlineConnect=0;targetShapes=umlLifeline;portConstraint=eastwest;newEdgeStyle={&quot;curved&quot;:0,&quot;rounded&quot;:0};" vertex="1" parent="_VooXeqQFyOwJ9W8HVB8-1">
          <mxGeometry x="45" y="80" width="10" height="60" as="geometry" />
        </mxCell>
        <mxCell id="_VooXeqQFyOwJ9W8HVB8-3" value="Form" style="shape=umlLifeline;perimeter=lifelinePerimeter;whiteSpace=wrap;html=1;container=1;dropTarget=0;collapsible=0;recursiveResize=0;outlineConnect=0;portConstraint=eastwest;newEdgeStyle={&quot;curved&quot;:0,&quot;rounded&quot;:0};" vertex="1" parent="1">
          <mxGeometry x="20" y="70" width="100" height="490" as="geometry" />
        </mxCell>
        <mxCell id="_VooXeqQFyOwJ9W8HVB8-4" value="" style="html=1;points=[[0,0,0,0,5],[0,1,0,0,-5],[1,0,0,0,5],[1,1,0,0,-5]];perimeter=orthogonalPerimeter;outlineConnect=0;targetShapes=umlLifeline;portConstraint=eastwest;newEdgeStyle={&quot;curved&quot;:0,&quot;rounded&quot;:0};" vertex="1" parent="_VooXeqQFyOwJ9W8HVB8-3">
          <mxGeometry x="45" y="80" width="10" height="30" as="geometry" />
        </mxCell>
        <mxCell id="_VooXeqQFyOwJ9W8HVB8-5" value="" style="html=1;points=[[0,0,0,0,5],[0,1,0,0,-5],[1,0,0,0,5],[1,1,0,0,-5]];perimeter=orthogonalPerimeter;outlineConnect=0;targetShapes=umlLifeline;portConstraint=eastwest;newEdgeStyle={&quot;curved&quot;:0,&quot;rounded&quot;:0};" vertex="1" parent="_VooXeqQFyOwJ9W8HVB8-3">
          <mxGeometry x="45" y="140" width="10" height="20" as="geometry" />
        </mxCell>
        <mxCell id="_VooXeqQFyOwJ9W8HVB8-6" value="Controller" style="shape=umlLifeline;perimeter=lifelinePerimeter;whiteSpace=wrap;html=1;container=1;dropTarget=0;collapsible=0;recursiveResize=0;outlineConnect=0;portConstraint=eastwest;newEdgeStyle={&quot;curved&quot;:0,&quot;rounded&quot;:0};" vertex="1" parent="1">
          <mxGeometry x="450" y="70" width="100" height="490" as="geometry" />
        </mxCell>
        <mxCell id="_VooXeqQFyOwJ9W8HVB8-7" value="" style="html=1;points=[[0,0,0,0,5],[0,1,0,0,-5],[1,0,0,0,5],[1,1,0,0,-5]];perimeter=orthogonalPerimeter;outlineConnect=0;targetShapes=umlLifeline;portConstraint=eastwest;newEdgeStyle={&quot;curved&quot;:0,&quot;rounded&quot;:0};" vertex="1" parent="_VooXeqQFyOwJ9W8HVB8-6">
          <mxGeometry x="45" y="180" width="10" height="190" as="geometry" />
        </mxCell>
        <mxCell id="_VooXeqQFyOwJ9W8HVB8-8" value="" style="html=1;points=[[0,0,0,0,5],[0,1,0,0,-5],[1,0,0,0,5],[1,1,0,0,-5]];perimeter=orthogonalPerimeter;outlineConnect=0;targetShapes=umlLifeline;portConstraint=eastwest;newEdgeStyle={&quot;curved&quot;:0,&quot;rounded&quot;:0};" vertex="1" parent="_VooXeqQFyOwJ9W8HVB8-6">
          <mxGeometry x="55" y="280" width="10" height="50" as="geometry" />
        </mxCell>
        <mxCell id="_VooXeqQFyOwJ9W8HVB8-9" value="8. Kiểm tra&amp;nbsp;" style="html=1;align=left;spacingLeft=2;endArrow=block;rounded=0;edgeStyle=orthogonalEdgeStyle;curved=0;rounded=0;" edge="1" parent="_VooXeqQFyOwJ9W8HVB8-6" target="_VooXeqQFyOwJ9W8HVB8-8">
          <mxGeometry relative="1" as="geometry">
            <mxPoint x="60" y="260" as="sourcePoint" />
            <Array as="points">
              <mxPoint x="90" y="290" />
            </Array>
          </mxGeometry>
        </mxCell>
        <mxCell id="_VooXeqQFyOwJ9W8HVB8-10" value="2. Yêu cầu xác nhận xóa" style="html=1;verticalAlign=bottom;endArrow=open;dashed=1;endSize=8;curved=0;rounded=0;" edge="1" parent="1">
          <mxGeometry relative="1" as="geometry">
            <mxPoint x="69.5" y="180" as="sourcePoint" />
            <mxPoint x="-80" y="180" as="targetPoint" />
            <Array as="points">
              <mxPoint x="-30" y="180" />
            </Array>
          </mxGeometry>
        </mxCell>
        <mxCell id="_VooXeqQFyOwJ9W8HVB8-11" value="3. Xác nhận" style="html=1;verticalAlign=bottom;endArrow=block;curved=0;rounded=0;" edge="1" parent="1" source="_VooXeqQFyOwJ9W8HVB8-2" target="_VooXeqQFyOwJ9W8HVB8-5">
          <mxGeometry width="80" relative="1" as="geometry">
            <mxPoint x="-100" y="230" as="sourcePoint" />
            <mxPoint x="130" y="230" as="targetPoint" />
          </mxGeometry>
        </mxCell>
        <mxCell id="_VooXeqQFyOwJ9W8HVB8-12" value="1. Gửi yêu cầu xóa sản phẩm&lt;br&gt;khỏi giỏ hàng" style="html=1;verticalAlign=bottom;endArrow=block;curved=0;rounded=0;" edge="1" parent="1">
          <mxGeometry width="80" relative="1" as="geometry">
            <mxPoint x="-90" y="150" as="sourcePoint" />
            <mxPoint x="70" y="150" as="targetPoint" />
          </mxGeometry>
        </mxCell>
        <mxCell id="_VooXeqQFyOwJ9W8HVB8-13" value="5. DELETE Gửi yêu cầu xóa sản phẩm&amp;nbsp;" style="html=1;verticalAlign=bottom;endArrow=block;curved=0;rounded=0;" edge="1" parent="1" target="_VooXeqQFyOwJ9W8HVB8-6">
          <mxGeometry width="80" relative="1" as="geometry">
            <mxPoint x="260" y="250" as="sourcePoint" />
            <mxPoint x="460" y="250" as="targetPoint" />
          </mxGeometry>
        </mxCell>
        <mxCell id="_VooXeqQFyOwJ9W8HVB8-14" value="Database" style="shape=umlLifeline;perimeter=lifelinePerimeter;whiteSpace=wrap;html=1;container=1;dropTarget=0;collapsible=0;recursiveResize=0;outlineConnect=0;portConstraint=eastwest;newEdgeStyle={&quot;curved&quot;:0,&quot;rounded&quot;:0};" vertex="1" parent="1">
          <mxGeometry x="630" y="70" width="100" height="490" as="geometry" />
        </mxCell>
        <mxCell id="_VooXeqQFyOwJ9W8HVB8-15" value="" style="html=1;points=[[0,0,0,0,5],[0,1,0,0,-5],[1,0,0,0,5],[1,1,0,0,-5]];perimeter=orthogonalPerimeter;outlineConnect=0;targetShapes=umlLifeline;portConstraint=eastwest;newEdgeStyle={&quot;curved&quot;:0,&quot;rounded&quot;:0};" vertex="1" parent="_VooXeqQFyOwJ9W8HVB8-14">
          <mxGeometry x="45" y="210" width="10" height="40" as="geometry" />
        </mxCell>
        <mxCell id="_VooXeqQFyOwJ9W8HVB8-16" value="" style="line;strokeWidth=2;html=1;fillColor=#f5f5f5;fontColor=#333333;strokeColor=#666666;" vertex="1" parent="1">
          <mxGeometry x="-130" y="10" width="850" height="10" as="geometry" />
        </mxCell>
        <mxCell id="_VooXeqQFyOwJ9W8HVB8-17" value="Server" style="text;html=1;align=center;verticalAlign=middle;resizable=0;points=[];autosize=1;strokeColor=none;fillColor=none;" vertex="1" parent="1">
          <mxGeometry x="580" y="-20" width="60" height="30" as="geometry" />
        </mxCell>
        <mxCell id="_VooXeqQFyOwJ9W8HVB8-18" value="Client" style="text;html=1;align=center;verticalAlign=middle;resizable=0;points=[];autosize=1;strokeColor=none;fillColor=none;" vertex="1" parent="1">
          <mxGeometry x="155" y="-20" width="50" height="30" as="geometry" />
        </mxCell>
        <mxCell id="_VooXeqQFyOwJ9W8HVB8-19" value="" style="line;strokeWidth=2;direction=south;html=1;fillColor=#f5f5f5;fontColor=#333333;strokeColor=#666666;" vertex="1" parent="1">
          <mxGeometry x="400" y="-10" width="10" height="570" as="geometry" />
        </mxCell>
        <mxCell id="_VooXeqQFyOwJ9W8HVB8-20" value="ViewModel" style="shape=umlLifeline;perimeter=lifelinePerimeter;whiteSpace=wrap;html=1;container=1;dropTarget=0;collapsible=0;recursiveResize=0;outlineConnect=0;portConstraint=eastwest;newEdgeStyle={&quot;curved&quot;:0,&quot;rounded&quot;:0};" vertex="1" parent="1">
          <mxGeometry x="210" y="70" width="100" height="490" as="geometry" />
        </mxCell>
        <mxCell id="_VooXeqQFyOwJ9W8HVB8-21" value="" style="html=1;points=[[0,0,0,0,5],[0,1,0,0,-5],[1,0,0,0,5],[1,1,0,0,-5]];perimeter=orthogonalPerimeter;outlineConnect=0;targetShapes=umlLifeline;portConstraint=eastwest;newEdgeStyle={&quot;curved&quot;:0,&quot;rounded&quot;:0};" vertex="1" parent="_VooXeqQFyOwJ9W8HVB8-20">
          <mxGeometry x="45" y="160" width="10" height="20" as="geometry" />
        </mxCell>
        <mxCell id="_VooXeqQFyOwJ9W8HVB8-22" value="4. Gửi thông tin&amp;nbsp;" style="html=1;verticalAlign=bottom;endArrow=block;curved=0;rounded=0;" edge="1" parent="1">
          <mxGeometry width="80" relative="1" as="geometry">
            <mxPoint x="70.5" y="230" as="sourcePoint" />
            <mxPoint x="260" y="230" as="targetPoint" />
          </mxGeometry>
        </mxCell>
        <mxCell id="_VooXeqQFyOwJ9W8HVB8-23" value="6. Gửi truy vấn" style="html=1;verticalAlign=bottom;endArrow=block;curved=0;rounded=0;" edge="1" parent="1" target="_VooXeqQFyOwJ9W8HVB8-15">
          <mxGeometry width="80" relative="1" as="geometry">
            <mxPoint x="500" y="280" as="sourcePoint" />
            <mxPoint x="689.5" y="280" as="targetPoint" />
          </mxGeometry>
        </mxCell>
        <mxCell id="_VooXeqQFyOwJ9W8HVB8-24" value="7. Trả kết quả" style="html=1;verticalAlign=bottom;endArrow=open;dashed=1;endSize=8;curved=0;rounded=0;" edge="1" parent="1">
          <mxGeometry relative="1" as="geometry">
            <mxPoint x="670" y="320" as="sourcePoint" />
            <mxPoint x="500" y="320" as="targetPoint" />
            <Array as="points">
              <mxPoint x="535.5" y="320" />
            </Array>
          </mxGeometry>
        </mxCell>
        <mxCell id="_VooXeqQFyOwJ9W8HVB8-25" value="8.1. Thất bại: status code:400" style="html=1;verticalAlign=bottom;endArrow=open;dashed=1;endSize=8;curved=0;rounded=0;" edge="1" parent="1">
          <mxGeometry relative="1" as="geometry">
            <mxPoint x="500" y="370" as="sourcePoint" />
            <mxPoint x="260" y="370" as="targetPoint" />
            <Array as="points" />
          </mxGeometry>
        </mxCell>
        <mxCell id="_VooXeqQFyOwJ9W8HVB8-26" value="8.2. Thành công: status code:200" style="html=1;verticalAlign=bottom;endArrow=open;dashed=1;endSize=8;curved=0;rounded=0;" edge="1" parent="1">
          <mxGeometry relative="1" as="geometry">
            <mxPoint x="500" y="400" as="sourcePoint" />
            <mxPoint x="260" y="400" as="targetPoint" />
            <Array as="points">
              <mxPoint x="370.5" y="400.38" />
            </Array>
          </mxGeometry>
        </mxCell>
        <mxCell id="_VooXeqQFyOwJ9W8HVB8-27" value="" style="line;strokeWidth=2;direction=south;html=1;fillColor=#f5f5f5;fontColor=#333333;strokeColor=#666666;" vertex="1" parent="1">
          <mxGeometry x="400" y="35" width="10" height="525" as="geometry" />
        </mxCell>
        <mxCell id="_VooXeqQFyOwJ9W8HVB8-28" value="8.1.1. Hiển thị thông báo lỗi" style="html=1;verticalAlign=bottom;endArrow=open;dashed=1;endSize=8;curved=0;rounded=0;" edge="1" parent="1">
          <mxGeometry relative="1" as="geometry">
            <mxPoint x="261" y="390" as="sourcePoint" />
            <mxPoint x="70" y="390" as="targetPoint" />
            <Array as="points" />
          </mxGeometry>
        </mxCell>
        <mxCell id="_VooXeqQFyOwJ9W8HVB8-29" value="8.2.1. Hiển thị thông báo thành công&lt;br&gt;hiển thị lại trang danh sách" style="html=1;verticalAlign=bottom;endArrow=open;dashed=1;endSize=8;curved=0;rounded=0;" edge="1" parent="1">
          <mxGeometry relative="1" as="geometry">
            <mxPoint x="261" y="439.40999999999997" as="sourcePoint" />
            <mxPoint x="70" y="439.40999999999997" as="targetPoint" />
            <Array as="points" />
          </mxGeometry>
        </mxCell>
      </root>
    </mxGraphModel>
  </diagram>
  <diagram id="secHw5kpxeBgzVYHl4FX" name="Page-4">
    <mxGraphModel dx="1962" dy="1573" grid="1" gridSize="10" guides="1" tooltips="1" connect="1" arrows="1" fold="1" page="1" pageScale="1" pageWidth="850" pageHeight="1100" math="0" shadow="0">
      <root>
        <mxCell id="0" />
        <mxCell id="1" parent="0" />
        <mxCell id="-Q96Pm7qDiV-7WUL0u15-1" value="Khách hàng" style="shape=umlLifeline;perimeter=lifelinePerimeter;whiteSpace=wrap;html=1;container=1;dropTarget=0;collapsible=0;recursiveResize=0;outlineConnect=0;portConstraint=eastwest;newEdgeStyle={&quot;curved&quot;:0,&quot;rounded&quot;:0};" vertex="1" parent="1">
          <mxGeometry x="-120" y="80" width="100" height="440" as="geometry" />
        </mxCell>
        <mxCell id="-Q96Pm7qDiV-7WUL0u15-2" value="" style="html=1;points=[[0,0,0,0,5],[0,1,0,0,-5],[1,0,0,0,5],[1,1,0,0,-5]];perimeter=orthogonalPerimeter;outlineConnect=0;targetShapes=umlLifeline;portConstraint=eastwest;newEdgeStyle={&quot;curved&quot;:0,&quot;rounded&quot;:0};" vertex="1" parent="-Q96Pm7qDiV-7WUL0u15-1">
          <mxGeometry x="45" y="80" width="10" height="60" as="geometry" />
        </mxCell>
        <mxCell id="-Q96Pm7qDiV-7WUL0u15-3" value="Form" style="shape=umlLifeline;perimeter=lifelinePerimeter;whiteSpace=wrap;html=1;container=1;dropTarget=0;collapsible=0;recursiveResize=0;outlineConnect=0;portConstraint=eastwest;newEdgeStyle={&quot;curved&quot;:0,&quot;rounded&quot;:0};" vertex="1" parent="1">
          <mxGeometry x="30" y="80" width="100" height="440" as="geometry" />
        </mxCell>
        <mxCell id="-Q96Pm7qDiV-7WUL0u15-4" value="" style="html=1;points=[[0,0,0,0,5],[0,1,0,0,-5],[1,0,0,0,5],[1,1,0,0,-5]];perimeter=orthogonalPerimeter;outlineConnect=0;targetShapes=umlLifeline;portConstraint=eastwest;newEdgeStyle={&quot;curved&quot;:0,&quot;rounded&quot;:0};" vertex="1" parent="-Q96Pm7qDiV-7WUL0u15-3">
          <mxGeometry x="45" y="80" width="10" height="80" as="geometry" />
        </mxCell>
        <mxCell id="-Q96Pm7qDiV-7WUL0u15-5" value="" style="html=1;points=[[0,0,0,0,5],[0,1,0,0,-5],[1,0,0,0,5],[1,1,0,0,-5]];perimeter=orthogonalPerimeter;outlineConnect=0;targetShapes=umlLifeline;portConstraint=eastwest;newEdgeStyle={&quot;curved&quot;:0,&quot;rounded&quot;:0};" vertex="1" parent="-Q96Pm7qDiV-7WUL0u15-3">
          <mxGeometry x="45" y="330" width="10" height="80" as="geometry" />
        </mxCell>
        <mxCell id="-Q96Pm7qDiV-7WUL0u15-6" value="Controller" style="shape=umlLifeline;perimeter=lifelinePerimeter;whiteSpace=wrap;html=1;container=1;dropTarget=0;collapsible=0;recursiveResize=0;outlineConnect=0;portConstraint=eastwest;newEdgeStyle={&quot;curved&quot;:0,&quot;rounded&quot;:0};" vertex="1" parent="1">
          <mxGeometry x="460" y="80" width="100" height="440" as="geometry" />
        </mxCell>
        <mxCell id="-Q96Pm7qDiV-7WUL0u15-7" value="" style="html=1;points=[[0,0,0,0,5],[0,1,0,0,-5],[1,0,0,0,5],[1,1,0,0,-5]];perimeter=orthogonalPerimeter;outlineConnect=0;targetShapes=umlLifeline;portConstraint=eastwest;newEdgeStyle={&quot;curved&quot;:0,&quot;rounded&quot;:0};" vertex="1" parent="-Q96Pm7qDiV-7WUL0u15-6">
          <mxGeometry x="45" y="180" width="10" height="180" as="geometry" />
        </mxCell>
        <mxCell id="-Q96Pm7qDiV-7WUL0u15-8" value="" style="html=1;points=[[0,0,0,0,5],[0,1,0,0,-5],[1,0,0,0,5],[1,1,0,0,-5]];perimeter=orthogonalPerimeter;outlineConnect=0;targetShapes=umlLifeline;portConstraint=eastwest;newEdgeStyle={&quot;curved&quot;:0,&quot;rounded&quot;:0};" vertex="1" parent="-Q96Pm7qDiV-7WUL0u15-6">
          <mxGeometry x="55" y="290" width="10" height="60" as="geometry" />
        </mxCell>
        <mxCell id="-Q96Pm7qDiV-7WUL0u15-9" value="6. Kiểm tra" style="html=1;align=left;spacingLeft=2;endArrow=block;rounded=0;edgeStyle=orthogonalEdgeStyle;curved=0;rounded=0;" edge="1" parent="-Q96Pm7qDiV-7WUL0u15-6" target="-Q96Pm7qDiV-7WUL0u15-8">
          <mxGeometry relative="1" as="geometry">
            <mxPoint x="60" y="260" as="sourcePoint" />
            <Array as="points">
              <mxPoint x="90" y="290" />
            </Array>
          </mxGeometry>
        </mxCell>
        <mxCell id="-Q96Pm7qDiV-7WUL0u15-10" value="1. Gửi yêu cầu xem&amp;nbsp;&lt;br&gt;&amp;nbsp;sản phẩm trong giỏ hàng" style="html=1;verticalAlign=bottom;endArrow=block;curved=0;rounded=0;" edge="1" parent="1">
          <mxGeometry width="80" relative="1" as="geometry">
            <mxPoint x="-70" y="160" as="sourcePoint" />
            <mxPoint x="80" y="160" as="targetPoint" />
          </mxGeometry>
        </mxCell>
        <mxCell id="-Q96Pm7qDiV-7WUL0u15-11" value="3. GET Gửi yêu cầu xem&amp;nbsp;" style="html=1;verticalAlign=bottom;endArrow=block;curved=0;rounded=0;" edge="1" parent="1" target="-Q96Pm7qDiV-7WUL0u15-6">
          <mxGeometry width="80" relative="1" as="geometry">
            <mxPoint x="270" y="260" as="sourcePoint" />
            <mxPoint x="470" y="260" as="targetPoint" />
          </mxGeometry>
        </mxCell>
        <mxCell id="-Q96Pm7qDiV-7WUL0u15-12" value="Database" style="shape=umlLifeline;perimeter=lifelinePerimeter;whiteSpace=wrap;html=1;container=1;dropTarget=0;collapsible=0;recursiveResize=0;outlineConnect=0;portConstraint=eastwest;newEdgeStyle={&quot;curved&quot;:0,&quot;rounded&quot;:0};" vertex="1" parent="1">
          <mxGeometry x="640" y="80" width="100" height="440" as="geometry" />
        </mxCell>
        <mxCell id="-Q96Pm7qDiV-7WUL0u15-13" value="" style="html=1;points=[[0,0,0,0,5],[0,1,0,0,-5],[1,0,0,0,5],[1,1,0,0,-5]];perimeter=orthogonalPerimeter;outlineConnect=0;targetShapes=umlLifeline;portConstraint=eastwest;newEdgeStyle={&quot;curved&quot;:0,&quot;rounded&quot;:0};" vertex="1" parent="-Q96Pm7qDiV-7WUL0u15-12">
          <mxGeometry x="45" y="210" width="10" height="40" as="geometry" />
        </mxCell>
        <mxCell id="-Q96Pm7qDiV-7WUL0u15-14" value="" style="line;strokeWidth=2;html=1;fillColor=#f5f5f5;fontColor=#333333;strokeColor=#666666;" vertex="1" parent="1">
          <mxGeometry x="-120" y="20" width="840" height="10" as="geometry" />
        </mxCell>
        <mxCell id="-Q96Pm7qDiV-7WUL0u15-15" value="Server" style="text;html=1;align=center;verticalAlign=middle;resizable=0;points=[];autosize=1;strokeColor=none;fillColor=none;" vertex="1" parent="1">
          <mxGeometry x="590" y="-10" width="60" height="30" as="geometry" />
        </mxCell>
        <mxCell id="-Q96Pm7qDiV-7WUL0u15-16" value="Client" style="text;html=1;align=center;verticalAlign=middle;resizable=0;points=[];autosize=1;strokeColor=none;fillColor=none;" vertex="1" parent="1">
          <mxGeometry x="165" y="-10" width="50" height="30" as="geometry" />
        </mxCell>
        <mxCell id="-Q96Pm7qDiV-7WUL0u15-17" value="" style="line;strokeWidth=2;direction=south;html=1;fillColor=#f5f5f5;fontColor=#333333;strokeColor=#666666;" vertex="1" parent="1">
          <mxGeometry x="410" width="10" height="520" as="geometry" />
        </mxCell>
        <mxCell id="-Q96Pm7qDiV-7WUL0u15-18" value="ViewModel" style="shape=umlLifeline;perimeter=lifelinePerimeter;whiteSpace=wrap;html=1;container=1;dropTarget=0;collapsible=0;recursiveResize=0;outlineConnect=0;portConstraint=eastwest;newEdgeStyle={&quot;curved&quot;:0,&quot;rounded&quot;:0};" vertex="1" parent="1">
          <mxGeometry x="220" y="80" width="100" height="440" as="geometry" />
        </mxCell>
        <mxCell id="-Q96Pm7qDiV-7WUL0u15-19" value="" style="html=1;points=[[0,0,0,0,5],[0,1,0,0,-5],[1,0,0,0,5],[1,1,0,0,-5]];perimeter=orthogonalPerimeter;outlineConnect=0;targetShapes=umlLifeline;portConstraint=eastwest;newEdgeStyle={&quot;curved&quot;:0,&quot;rounded&quot;:0};" vertex="1" parent="-Q96Pm7qDiV-7WUL0u15-18">
          <mxGeometry x="45" y="160" width="10" height="20" as="geometry" />
        </mxCell>
        <mxCell id="-Q96Pm7qDiV-7WUL0u15-20" value="" style="html=1;points=[[0,0,0,0,5],[0,1,0,0,-5],[1,0,0,0,5],[1,1,0,0,-5]];perimeter=orthogonalPerimeter;outlineConnect=0;targetShapes=umlLifeline;portConstraint=eastwest;newEdgeStyle={&quot;curved&quot;:0,&quot;rounded&quot;:0};" vertex="1" parent="-Q96Pm7qDiV-7WUL0u15-18">
          <mxGeometry x="45" y="310" width="10" height="80" as="geometry" />
        </mxCell>
        <mxCell id="-Q96Pm7qDiV-7WUL0u15-21" value="2. Gửi thông tin&amp;nbsp;" style="html=1;verticalAlign=bottom;endArrow=block;curved=0;rounded=0;" edge="1" parent="1">
          <mxGeometry width="80" relative="1" as="geometry">
            <mxPoint x="80.5" y="240" as="sourcePoint" />
            <mxPoint x="270" y="240" as="targetPoint" />
          </mxGeometry>
        </mxCell>
        <mxCell id="-Q96Pm7qDiV-7WUL0u15-22" value="4. Gửi truy vấn&amp;nbsp;" style="html=1;verticalAlign=bottom;endArrow=block;curved=0;rounded=0;" edge="1" parent="1" target="-Q96Pm7qDiV-7WUL0u15-13">
          <mxGeometry width="80" relative="1" as="geometry">
            <mxPoint x="520" y="290" as="sourcePoint" />
            <mxPoint x="699.5" y="290" as="targetPoint" />
          </mxGeometry>
        </mxCell>
        <mxCell id="-Q96Pm7qDiV-7WUL0u15-23" value="6.1. Thất bại:&amp;nbsp; status code:400" style="html=1;verticalAlign=bottom;endArrow=open;dashed=1;endSize=8;curved=0;rounded=0;exitX=0.5;exitY=0.722;exitDx=0;exitDy=0;exitPerimeter=0;" edge="1" parent="1" source="-Q96Pm7qDiV-7WUL0u15-7">
          <mxGeometry relative="1" as="geometry">
            <mxPoint x="510" y="390" as="sourcePoint" />
            <mxPoint x="270" y="390" as="targetPoint" />
            <Array as="points">
              <mxPoint x="380.5" y="390.38" />
            </Array>
          </mxGeometry>
        </mxCell>
        <mxCell id="-Q96Pm7qDiV-7WUL0u15-24" value="6.2. Thành công: status code:200" style="html=1;verticalAlign=bottom;endArrow=open;dashed=1;endSize=8;curved=0;rounded=0;" edge="1" parent="1">
          <mxGeometry relative="1" as="geometry">
            <mxPoint x="510" y="430" as="sourcePoint" />
            <mxPoint x="270" y="430" as="targetPoint" />
            <Array as="points" />
          </mxGeometry>
        </mxCell>
        <mxCell id="-Q96Pm7qDiV-7WUL0u15-25" value="" style="line;strokeWidth=2;direction=south;html=1;fillColor=#f5f5f5;fontColor=#333333;strokeColor=#666666;" vertex="1" parent="1">
          <mxGeometry x="410" y="45" width="10" height="475" as="geometry" />
        </mxCell>
        <mxCell id="-Q96Pm7qDiV-7WUL0u15-26" value="6.1.1. Hiển thị thông báo lỗi" style="html=1;verticalAlign=bottom;endArrow=open;dashed=1;endSize=8;curved=0;rounded=0;" edge="1" parent="1">
          <mxGeometry relative="1" as="geometry">
            <mxPoint x="271" y="410" as="sourcePoint" />
            <mxPoint x="80" y="410" as="targetPoint" />
            <Array as="points" />
          </mxGeometry>
        </mxCell>
        <mxCell id="-Q96Pm7qDiV-7WUL0u15-27" value="6.2.1. Hiển thị sản phẩm trong giỏ" style="html=1;verticalAlign=bottom;endArrow=open;dashed=1;endSize=8;curved=0;rounded=0;" edge="1" parent="1">
          <mxGeometry relative="1" as="geometry">
            <mxPoint x="271" y="470" as="sourcePoint" />
            <mxPoint x="80" y="470" as="targetPoint" />
            <Array as="points" />
          </mxGeometry>
        </mxCell>
        <mxCell id="-Q96Pm7qDiV-7WUL0u15-28" value="5. trả kết quả" style="html=1;verticalAlign=bottom;endArrow=open;dashed=1;endSize=8;curved=0;rounded=0;" edge="1" parent="1">
          <mxGeometry relative="1" as="geometry">
            <mxPoint x="690" y="330" as="sourcePoint" />
            <mxPoint x="510" y="330" as="targetPoint" />
            <Array as="points" />
          </mxGeometry>
        </mxCell>
      </root>
    </mxGraphModel>
  </diagram>
</mxfile>
